# xmcd
#
# Track frame offsets:
#	150
#	14147
#	25335
#	38577
#	53432
#	71092
#	88432
#	107380
#	122142
#	137362
#	159752
#	173575
#
# Disc length: 2641 seconds
#
# Revision: 0
# Processed by: cddbd v1.5.1PL2 Copyright (c) Steve Scherf et al.
# Submitted via: dBpowerAMP V4.0
#
DISCID=910a4f0c
DTITLE=Material Issue - The Best of Material Issue
DYEAR=2006
DGENRE=Rock
TTITLE0=Valerie Loves Me
TTITLE1=International Pop Overthrow
TTITLE2=Diane
TTITLE3=Renee Remains the Same
TTITLE4=What Girls Want
TTITLE5=Everything
TTITLE6=When I Get This Way (Over You)
TTITLE7=Next Big Thiing
TTITLE8=Goin' Through Your Purse
TTITLE9=Kim the Waitress
TTITLE10=She's Going Through My Head
TTITLE11=Ballroom Blitz - Live
EXTD=
EXTT0=
EXTT1=
EXTT2=
EXTT3=
EXTT4=
EXTT5=
EXTT6=
EXTT7=
EXTT8=
EXTT9=
EXTT10=
EXTT11=
PLAYORDER=
